<?xml version="1.0" standalone="no"?>
<!DOCTYPE svg PUBLIC "-//W3C//DTD SVG 20010904//EN"
 "http://www.w3.org/TR/2001/REC-SVG-20010904/DTD/svg10.dtd">
<svg version="1.0" xmlns="http://www.w3.org/2000/svg"
 width="532.000000pt" height="626.000000pt" viewBox="0 0 532.000000 626.000000"
 preserveAspectRatio="xMidYMid meet">
<metadata>
Created by potrace 1.16, written by Peter Selinger 2001-2019
</metadata>
<g transform="translate(0.000000,626.000000) scale(0.100000,-0.100000)"
fill="#000000" stroke="none">
<path d="M3400 5330 c-50 -6 -46 -7 40 -9 64 -2 88 -5 75 -11 -14 -6 -15 -9
-5 -10 35 -2 -22 -21 -70 -23 -73 -3 -34 -13 103 -27 116 -11 147 -9 117 10
-13 8 -13 10 1 10 9 0 19 9 22 20 3 13 14 20 29 20 21 1 22 1 4 12 -22 12
-236 18 -316 8z m215 -50 c37 -10 10 -12 -34 -4 -17 4 -31 11 -31 16 0 6 8 7
18 3 9 -4 31 -11 47 -15z"/>
<path d="M1091 5250 c0 -8 4 -24 9 -35 5 -13 9 -14 9 -5 0 8 -4 24 -9 35 -5
13 -9 14 -9 5z"/>
<path d="M1111 5180 c0 -8 8 -42 19 -75 11 -33 17 -44 13 -25 -8 47 -31 119
-32 100z"/>
<path d="M4308 5076 c-15 -11 -9 -19 56 -79 90 -81 178 -189 248 -304 51 -84
53 -86 56 -54 4 38 -9 75 -51 147 -22 38 -35 50 -48 47 -13 -4 -44 21 -106 84
-48 49 -104 101 -123 115 -30 22 -33 27 -21 42 16 19 12 20 -11 2z"/>
<path d="M4417 5079 c7 -7 15 -10 18 -7 3 3 -2 9 -12 12 -14 6 -15 5 -6 -5z"/>
<path d="M4585 4995 c81 -105 94 -120 80 -95 -17 29 -123 166 -140 180 -10 8
17 -30 60 -85z"/>
<path d="M1151 5024 c0 -11 3 -14 6 -6 3 7 2 16 -1 19 -3 4 -6 -2 -5 -13z"/>
<path d="M1166 4976 c3 -15 7 -41 11 -56 4 -24 1 -29 -18 -33 l-24 -4 23 -2
c31 -2 36 19 18 76 -9 26 -13 35 -10 19z"/>
<path d="M2536 4909 c-22 -5 -42 -12 -45 -16 -3 -3 8 -2 24 2 17 4 80 11 140
15 l110 7 -95 0 c-52 1 -113 -3 -134 -8z"/>
<path d="M2830 4892 c36 -10 80 -26 98 -35 17 -10 32 -15 32 -12 0 12 -107 54
-150 59 -39 5 -36 3 20 -12z"/>
<path d="M1060 4875 c0 -25 15 -33 35 -18 19 15 19 15 1 9 -12 -4 -23 -1 -28
6 -4 7 -8 9 -8 3z"/>
<path d="M1313 4813 c0 -24 4 -43 9 -43 5 0 8 -17 7 -37 -2 -32 45 -230 57
-242 12 -12 0 54 -22 129 -14 47 -25 96 -25 110 0 14 -6 48 -13 75 l-14 50 1
-42z"/>
<path d="M2405 4840 c-145 -23 -274 -120 -345 -260 -13 -25 -24 -61 -26 -80
-14 -163 -16 -215 -9 -266 5 -33 10 -50 13 -39 3 15 8 8 18 -25 17 -57 17 -76
-1 -30 -16 42 -20 26 -4 -18 6 -18 15 -29 20 -26 5 3 6 -2 3 -10 -7 -18 14
-59 26 -51 6 3 7 -1 4 -9 -6 -17 8 -33 123 -133 45 -40 77 -58 115 -69 56 -15
127 -17 168 -5 23 7 22 8 -15 15 -52 9 -66 18 -56 35 7 11 19 11 60 2 85 -18
113 -14 151 20 19 17 28 26 19 20 -9 -6 -20 -7 -24 -3 -5 4 -5 2 -2 -4 9 -16
-81 -25 -149 -14 -109 18 -192 82 -209 162 -10 46 6 54 57 29 53 -25 126 -27
174 -5 19 9 50 35 69 57 136 159 72 424 -108 444 -62 7 -109 -11 -163 -63
l-46 -45 7 33 c30 141 139 217 295 206 80 -6 196 -58 213 -95 6 -13 14 -23 19
-23 4 0 8 -9 8 -20 0 -12 6 -31 14 -43 8 -12 19 -46 26 -74 11 -51 11 -54 -14
-84 -20 -23 -26 -42 -26 -77 0 -26 -2 -86 -3 -134 -2 -93 2 -93 35 0 54 154
30 367 -55 497 -92 138 -235 208 -382 185z m-5 -54 c0 -2 -8 -10 -17 -17 -16
-13 -17 -12 -4 4 13 16 21 21 21 13z m-135 -120 c-22 -53 -65 -216 -66 -251 0
-25 -2 -27 -8 -10 -14 34 -44 -88 -45 -182 -1 -86 -9 -90 -21 -9 -18 125 0
268 44 354 22 44 101 146 107 139 2 -2 -3 -21 -11 -41z m185 -260 c0 -8 -4
-17 -9 -21 -12 -7 -24 12 -16 25 9 15 25 12 25 -4z m-320 -406 c6 -11 8 -20 6
-20 -3 0 -10 9 -16 20 -6 11 -8 20 -6 20 3 0 10 -9 16 -20z"/>
<path d="M1178 4833 c7 -3 16 -2 19 1 4 3 -2 6 -13 5 -11 0 -14 -3 -6 -6z"/>
<path d="M1230 4830 c0 -6 5 -8 10 -5 6 3 10 -3 10 -14 0 -11 4 -22 9 -25 5
-4 6 5 2 21 -7 27 -31 45 -31 23z"/>
<path d="M1050 4811 c0 -10 4 -31 9 -47 5 -16 12 -41 15 -56 4 -16 11 -28 16
-28 5 0 6 7 3 17 -4 11 -3 14 5 9 17 -10 15 13 -3 30 -8 8 -19 33 -25 54 -11
43 -20 52 -20 21z"/>
<path d="M1136 4815 c-11 -8 -15 -15 -9 -15 6 0 16 7 23 15 16 19 11 19 -14 0z"/>
<path d="M1163 4794 c-35 -15 -38 -21 -24 -42 5 -9 22 -13 47 -10 l38 3 37
-135 c21 -74 38 -128 38 -120 1 8 -14 71 -33 140 -19 69 -30 127 -25 128 5 2
9 8 9 13 0 5 -13 3 -30 -6 -36 -19 -54 -19 -70 -1 -9 12 -5 16 24 22 20 3 36
10 36 15 0 12 -8 10 -47 -7z"/>
<path d="M3488 4803 c18 -2 45 -2 60 0 15 2 0 4 -33 4 -33 0 -45 -2 -27 -4z"/>
<path d="M3725 4801 c61 -5 142 -11 180 -14 57 -5 61 -4 25 3 -25 5 -106 11
-180 14 -132 4 -133 4 -25 -3z"/>
<path d="M3428 4793 c7 -3 16 -2 19 1 4 3 -2 6 -13 5 -11 0 -14 -3 -6 -6z"/>
<path d="M3358 4767 c-20 -12 -58 -48 -85 -80 l-48 -58 -77 3 c-42 2 -74 0
-71 -4 2 -5 37 -8 77 -8 l72 0 58 65 c32 36 74 74 94 85 20 10 33 19 27 20 -5
0 -26 -10 -47 -23z"/>
<path d="M3998 4773 c6 -2 18 -2 25 0 6 3 1 5 -13 5 -14 0 -19 -2 -12 -5z"/>
<path d="M1277 4759 c7 -7 15 -10 18 -7 3 3 -2 9 -12 12 -14 6 -15 5 -6 -5z"/>
<path d="M4058 4763 c7 -3 16 -2 19 1 4 3 -2 6 -13 5 -11 0 -14 -3 -6 -6z"/>
<path d="M3607 4725 c-86 -22 -160 -62 -229 -124 -182 -165 -230 -415 -124
-646 18 -38 41 -77 51 -85 16 -13 16 -10 -3 16 -25 36 -45 84 -34 84 4 0 16
-19 27 -43 11 -23 45 -68 76 -100 30 -31 54 -60 52 -62 -2 -3 0 -3 3 0 4 2 19
-2 35 -10 24 -13 143 -31 239 -36 14 -1 -4 -6 -40 -10 -36 -5 -81 -7 -100 -4
l-35 5 40 -16 c66 -25 159 -34 232 -22 285 44 490 338 444 635 -28 182 -163
343 -336 403 -80 28 -221 35 -298 15z m330 -129 c124 -57 185 -128 217 -250
14 -54 14 -60 -5 -108 -11 -28 -26 -104 -34 -169 -7 -64 -18 -126 -24 -136
-34 -64 -157 -142 -265 -168 l-51 -13 80 -2 c62 -1 75 -3 56 -11 -13 -5 -40
-7 -60 -5 -20 3 -76 8 -126 11 -216 15 -280 36 -341 116 -57 75 -76 118 -67
161 13 63 24 64 112 4 56 -38 94 -57 126 -62 173 -26 314 93 315 265 0 83 -15
132 -58 181 -54 63 -102 84 -197 84 -56 0 -89 -5 -112 -17 -44 -24 -62 -21
-73 9 -14 35 -4 45 83 88 70 34 131 53 192 58 67 6 176 -11 232 -36z m-339
-283 c-4 -22 -22 -20 -26 1 -2 10 3 16 13 16 10 0 15 -7 13 -17z"/>
<path d="M2846 4661 c15 -25 35 -63 45 -85 10 -23 19 -35 19 -28 0 18 -44 103
-69 132 -17 19 -16 14 5 -19z"/>
<path d="M4690 4616 c0 -33 3 -56 7 -52 11 11 13 78 3 95 -7 11 -9 -2 -10 -43z"/>
<path d="M2919 4624 c11 -23 18 -44 15 -47 -3 -3 -1 -22 5 -43 7 -25 7 -42 1
-48 -7 -7 -10 -4 -10 6 0 9 -5 20 -11 23 -7 5 -8 -4 -4 -27 3 -18 -1 -83 -9
-143 -28 -212 -111 -370 -249 -471 -80 -59 -177 -89 -260 -80 -130 13 -265
111 -332 238 -16 31 -31 55 -33 53 -12 -11 75 -138 130 -191 76 -73 142 -109
239 -129 44 -9 89 -27 116 -46 25 -16 60 -33 77 -36 17 -4 54 -21 81 -38 84
-54 149 -83 231 -104 223 -56 426 -55 610 3 40 13 71 20 68 15 -8 -14 202 -10
288 5 123 22 277 123 295 193 3 13 10 23 16 23 6 0 8 3 5 6 -3 3 9 29 28 57
19 29 46 87 59 130 29 91 32 127 5 50 -39 -110 -108 -213 -175 -263 -11 -8 3
11 31 42 59 65 127 197 145 280 16 74 7 241 -15 288 -9 19 -13 26 -10 15 4
-11 9 -65 12 -121 8 -178 -49 -325 -171 -448 -122 -121 -226 -166 -382 -166
-194 0 -365 96 -464 261 -42 72 -63 150 -71 269 l-7 115 -1 -97 c-2 -120 10
-182 54 -275 41 -87 148 -209 217 -247 26 -15 47 -30 47 -33 0 -3 -62 -3 -137
0 -227 11 -535 52 -627 83 l-48 17 41 21 c53 27 144 116 186 181 118 185 138
434 52 626 -14 30 -32 63 -41 74 -13 15 -12 10 3 -21z"/>
<path d="M4726 4644 c-9 -22 3 -32 14 -14 12 19 12 30 1 30 -5 0 -12 -7 -15
-16z"/>
<path d="M1448 4484 c-3 -3 -16 -7 -29 -8 -13 -2 -37 -8 -52 -15 -16 -6 -43
-12 -60 -14 -25 -1 -32 2 -31 15 2 19 -17 17 -75 -4 -73 -27 71 -33 168 -7 71
19 118 38 95 39 -6 0 -13 -3 -16 -6z"/>
<path d="M1074 4421 c-29 -10 -60 -24 -70 -30 -37 -21 18 -13 60 10 21 11 51
19 67 17 16 -1 30 2 31 7 5 17 -35 15 -88 -4z"/>
<path d="M1420 4388 c-52 -17 -124 -37 -159 -45 -65 -14 -106 -31 -98 -39 4
-4 88 14 152 33 17 5 18 4 6 -10 -11 -15 -10 -18 10 -25 22 -8 21 -9 -11 -20
-18 -7 -44 -12 -57 -12 -15 0 -22 -4 -17 -11 4 -8 -1 -9 -16 -4 -17 5 -21 4
-15 -6 6 -9 2 -11 -15 -6 -15 4 -20 3 -13 -4 9 -9 72 2 150 27 13 4 12 0 -6
-15 l-23 -21 31 0 c17 0 55 9 84 19 133 49 161 60 148 61 -11 0 -11 3 -1 15
17 20 11 19 -52 -10 -29 -14 -64 -25 -78 -24 -28 0 -30 -1 68 40 80 33 57 32
-47 -2 -51 -17 -95 -29 -97 -27 -1 2 37 19 85 38 49 19 94 42 100 52 10 16 7
15 -29 -3 -22 -12 -59 -23 -82 -25 -42 -5 -42 -4 20 20 59 22 87 37 66 35 -5
-1 -52 -15 -104 -31z"/>
<path d="M1232 4403 c-6 -2 -9 -9 -6 -15 5 -7 -3 -9 -22 -4 -28 7 -28 7 -9 -8
27 -21 69 -21 61 -1 -3 9 0 15 9 15 8 0 15 5 15 10 0 10 -26 12 -48 3z"/>
<path d="M4632 4363 c-82 -118 -136 -350 -137 -594 0 -141 2 -159 19 -178 11
-12 27 -21 36 -21 17 0 17 3 1 43 -13 34 -16 77 -15 222 2 257 41 431 119 523
20 24 23 32 12 32 -9 0 -24 -12 -35 -27z"/>
<path d="M3182 4320 c0 -14 2 -19 5 -12 2 6 2 18 0 25 -3 6 -5 1 -5 -13z"/>
<path d="M4689 4318 c-96 -101 -178 -597 -114 -695 15 -22 21 -23 123 -23 59
0 102 4 95 8 -39 25 -41 269 -4 432 22 98 20 117 -3 35 -22 -72 -44 -95 -97
-95 -69 0 -81 12 -74 78 9 93 17 124 42 181 18 42 26 52 35 43 14 -14 77 -16
97 -3 11 7 10 11 -7 20 -27 14 -65 14 -80 -1 -8 -8 -12 -8 -12 -1 0 14 20 30
45 36 18 4 18 5 -2 6 -12 0 -32 -9 -44 -21z"/>
<path d="M1445 4244 c-55 -18 -110 -33 -123 -34 -13 0 -20 -4 -17 -10 3 -5 -2
-9 -12 -8 -10 0 -27 0 -38 -1 -17 -1 -18 -3 -5 -12 11 -8 8 -9 -15 -5 -24 5
-26 4 -13 -4 17 -10 82 2 143 26 19 7 19 7 2 -13 -12 -14 -15 -23 -7 -28 22
-13 213 63 223 89 8 20 8 20 -44 -4 -24 -11 -53 -19 -64 -19 -11 0 6 13 40 29
80 38 53 36 -70 -6z"/>
<path d="M1991 4254 c0 -11 3 -14 6 -6 3 7 2 16 -1 19 -3 4 -6 -2 -5 -13z"/>
<path d="M4865 4250 c-10 -11 -16 -22 -14 -24 2 -2 12 7 22 20 22 29 17 32 -8
4z"/>
<path d="M1075 4250 c-3 -5 -1 -10 4 -10 6 0 11 5 11 10 0 6 -2 10 -4 10 -3 0
-8 -4 -11 -10z"/>
<path d="M4892 4231 c-11 -6 -8 -14 12 -35 l27 -26 -5 -132 c-3 -73 -10 -148
-15 -167 -14 -45 -38 -81 -56 -81 -12 0 -14 16 -11 93 4 94 25 174 45 170 6
-2 11 4 11 13 0 9 -5 12 -12 8 -6 -4 -8 -3 -5 3 4 6 1 16 -7 22 -10 9 -15 8
-20 -4 -4 -11 -2 -14 7 -9 6 4 2 -3 -10 -14 -29 -28 -57 -155 -51 -229 4 -43
10 -59 28 -73 21 -16 22 -20 11 -53 -7 -20 -20 -41 -28 -46 -21 -11 -8 -31 21
-31 67 0 125 174 134 395 6 173 -18 234 -76 196z"/>
<path d="M1530 4192 c-45 -18 -129 -43 -208 -62 -24 -6 -40 -15 -36 -21 3 -6
-5 -7 -23 -4 -21 5 -24 4 -13 -4 13 -9 12 -11 -4 -11 -11 0 -17 -3 -14 -6 5
-4 69 11 178 43 8 2 2 -3 -14 -13 -26 -14 -27 -18 -12 -26 18 -10 81 7 166 46
25 11 50 19 57 18 6 -1 14 2 18 8 4 6 -1 7 -11 3 -13 -5 -16 -3 -11 10 8 21 5
21 -35 -2 -31 -19 -119 -44 -126 -37 -2 2 29 16 67 31 39 15 73 31 77 36 7 13
-4 11 -56 -9z"/>
<path d="M2001 4194 c0 -11 3 -14 6 -6 3 7 2 16 -1 19 -3 4 -6 -2 -5 -13z"/>
<path d="M4836 4193 c-6 -14 -5 -15 5 -6 7 7 10 15 7 18 -3 3 -9 -2 -12 -12z"/>
<path d="M1098 4173 c7 -3 16 -2 19 1 4 3 -2 6 -13 5 -11 0 -14 -3 -6 -6z"/>
<path d="M4366 4098 c-47 -216 -54 -308 -36 -458 14 -109 26 -152 49 -182 17
-21 17 -14 -6 67 -34 121 -35 319 -4 509 24 142 22 178 -3 64z"/>
<path d="M4866 4155 c-4 -11 0 -15 11 -13 12 2 20 -9 29 -37 l12 -40 1 37 c1
20 -2 43 -5 52 -8 20 -40 21 -48 1z"/>
<path d="M2011 4144 c0 -11 3 -14 6 -6 3 7 2 16 -1 19 -3 4 -6 -2 -5 -13z"/>
<path d="M1490 4096 c-126 -44 -132 -46 -85 -40 42 7 163 50 180 65 13 12 11
12 -95 -25z"/>
<path d="M1110 4100 c-9 -6 -10 -10 -3 -10 6 0 15 5 18 10 8 12 4 12 -15 0z"/>
<path d="M4301 4094 c0 -11 3 -14 6 -6 3 7 2 16 -1 19 -3 4 -6 -2 -5 -13z"/>
<path d="M1495 4049 c-43 -16 -83 -36 -87 -43 -7 -13 -60 -32 -141 -50 l-29
-7 46 -24 c39 -21 57 -24 109 -21 35 3 75 10 91 17 43 20 131 161 99 159 -5
-1 -44 -14 -88 -31z"/>
<path d="M4810 4056 c-15 -42 -11 -55 6 -17 8 19 12 36 9 39 -2 3 -9 -7 -15
-22z"/>
<path d="M2748 3993 c-18 -21 -31 -43 -25 -43 2 0 13 14 25 30 25 33 24 41 0
13z"/>
<path d="M2170 3926 c0 -2 8 -10 18 -17 15 -13 16 -12 3 4 -13 16 -21 21 -21
13z"/>
<path d="M4781 3894 c0 -11 3 -14 6 -6 3 7 2 16 -1 19 -3 4 -6 -2 -5 -13z"/>
<path d="M4782 3773 c0 -42 3 -50 17 -48 18 3 18 3 -3 59 l-14 40 0 -51z"/>
<path d="M2280 3783 c0 -29 35 -104 60 -128 l29 -27 -25 63 c-14 35 -28 70
-33 78 -9 17 -31 27 -31 14z"/>
<path d="M1496 3714 c-33 -32 -41 -35 -73 -29 -39 7 -39 8 -11 -65 27 -70 60
-122 86 -137 15 -9 46 -44 68 -79 39 -59 45 -81 16 -52 -9 9 -12 9 -12 -1 0
-7 -4 -9 -10 -6 -5 3 -16 -10 -24 -30 -9 -20 -26 -39 -40 -44 -79 -31 -59
-121 44 -194 14 -10 8 -9 -12 3 -24 14 -38 17 -38 10 0 -8 -8 -7 -25 4 -33 21
-35 21 -26 -11 12 -45 3 -66 -25 -60 -20 3 -30 -3 -49 -30 -31 -47 -22 -71 43
-104 28 -14 63 -39 79 -56 39 -41 93 -58 193 -58 76 0 91 3 140 30 144 79 269
254 270 377 0 16 -9 34 -24 45 -18 15 -23 26 -19 47 9 47 -26 137 -69 177 -36
34 -86 60 -72 38 3 -5 11 -9 18 -9 20 0 49 -37 43 -55 -8 -19 -46 -19 -71 0
-25 19 -35 19 -82 -2 -22 -9 -41 -17 -44 -18 -3 0 -11 -4 -19 -9 -20 -13 -42
18 -66 90 -11 32 -26 64 -34 70 -10 8 -11 13 -3 18 15 9 -1 51 -39 98 -16 20
-29 41 -29 47 0 9 -31 31 -43 31 -2 0 -21 -16 -41 -36z m83 -50 c-14 -17 -109
-68 -115 -62 -3 4 116 78 125 78 2 0 -2 -7 -10 -16z m82 -421 c-6 -10 -27 -36
-47 -58 -35 -38 -30 -29 19 42 23 34 45 46 28 16z m-125 -272 c-26 -49 -38
-46 -14 4 12 25 24 42 26 36 2 -5 -4 -23 -12 -40z"/>
<path d="M3608 3713 c7 -3 16 -2 19 1 4 3 -2 6 -13 5 -11 0 -14 -3 -6 -6z"/>
<path d="M2765 3440 c-19 -30 170 -90 413 -130 65 -11 72 -14 72 -35 0 -17 -6
-22 -24 -22 -13 0 -68 -4 -120 -8 -94 -7 -97 -8 -121 -39 -28 -37 -33 -81 -10
-90 8 -3 15 -13 15 -23 0 -12 3 -14 10 -7 10 10 31 8 166 -12 38 -5 66 -55 52
-93 -4 -13 -5 -65 -1 -115 4 -63 9 -83 14 -66 4 14 7 21 8 16 1 -6 7 -1 15 10
8 10 11 21 6 24 -5 3 -11 37 -15 75 l-7 70 53 0 c62 1 109 11 109 25 0 6 -9 6
-26 0 -31 -12 -147 -13 -140 -2 3 5 36 10 73 11 37 1 72 6 77 11 5 5 18 0 30
-11 21 -20 21 -20 30 3 41 100 34 97 223 124 105 15 115 15 138 0 19 -12 30
-14 44 -6 11 5 29 10 40 10 17 0 18 -3 9 -36 -5 -20 -7 -38 -4 -41 3 -4 25 1
48 10 23 9 43 15 45 13 2 -2 -12 -22 -31 -45 -34 -40 -35 -43 -31 -114 4 -53
2 -63 -4 -39 -15 57 -21 48 -21 -32 0 -66 18 -146 34 -146 2 0 2 18 -1 40 -3
22 -2 40 3 40 13 0 37 -107 28 -122 -5 -7 -3 -8 6 -3 10 6 12 4 7 -8 -4 -12
11 -36 48 -77 l53 -61 -3 -69 c-2 -39 -7 -75 -10 -80 -3 -6 0 -10 8 -10 9 0
21 24 33 65 11 38 24 65 32 65 7 0 10 5 7 10 -12 19 -13 125 -1 133 7 4 4 9
-9 13 -17 4 -20 14 -22 67 -1 40 1 56 8 46 6 -9 9 3 9 39 0 45 3 53 17 50 13
-2 21 -24 34 -87 9 -46 21 -86 26 -90 16 -11 31 -54 36 -103 1 -16 5 -28 10
-28 4 0 7 -9 7 -20 0 -11 4 -20 9 -20 5 0 9 -6 8 -12 -1 -34 4 -48 18 -48 9 0
22 -15 30 -32 12 -29 12 -35 -1 -44 -14 -12 -18 -56 -6 -86 6 -15 14 -14 79
15 55 24 75 39 84 61 7 16 23 42 37 57 13 16 20 29 15 29 -4 0 1 7 12 16 18
13 17 14 -15 9 -19 -3 -29 -3 -23 1 14 6 -4 40 -46 87 -13 15 -20 27 -14 27 6
0 8 13 5 33 -6 38 -5 75 4 180 6 69 5 80 -13 100 -11 12 -28 36 -37 52 -17 29
-10 22 27 -29 11 -15 17 -17 35 -7 12 6 22 17 22 23 0 7 -4 7 -14 -1 -10 -8
-16 -9 -21 -1 -3 5 -1 10 6 10 17 0 2 69 -22 103 -11 15 -15 27 -10 27 17 0
47 -53 59 -102 15 -60 16 -57 -10 -68 -16 -6 -18 -9 -7 -9 45 -2 50 90 8 144
-12 14 -22 32 -23 39 -6 42 -53 60 -77 29 -11 -15 -11 -16 1 -5 18 16 32 15
56 -4 18 -14 18 -15 -4 -4 -31 15 -50 -1 -55 -48 l-4 -37 -1 38 c-3 52 -22 38
-22 -16 -1 -41 -21 -83 -34 -70 -3 3 -31 5 -62 4 -49 -2 -55 0 -52 16 3 14 15
19 60 21 51 3 57 5 62 28 4 15 16 38 26 53 30 40 30 73 0 82 -30 8 -100 0
-117 -14 -7 -5 -18 -28 -25 -51 -7 -22 -22 -56 -35 -74 l-22 -34 -21 34 c-11
18 -20 38 -20 44 0 6 -11 21 -24 33 -18 17 -32 22 -50 17 -15 -3 -26 -3 -26 2
0 15 24 32 45 32 18 1 18 3 -8 25 -15 14 -40 25 -54 25 -21 0 -23 3 -14 14 18
21 -37 36 -135 36 -127 0 -108 16 28 24 67 4 126 10 130 12 4 3 8 14 8 25 0
14 7 19 28 20 15 0 36 4 46 8 19 7 18 8 -5 15 l-24 8 30 8 c23 6 15 8 -37 9
-37 0 -70 -4 -73 -9 -4 -6 -3 -10 2 -9 19 3 33 -2 33 -12 0 -5 -4 -8 -9 -4 -5
3 -12 1 -16 -5 -3 -5 -12 -10 -18 -10 -7 0 -6 4 3 11 11 8 5 9 -25 5 -22 -3
-71 -6 -108 -6 -38 0 -66 -4 -63 -8 7 -12 -493 -13 -531 -1 -18 6 -87 11 -153
12 -111 1 -118 3 -92 16 l27 15 -25 7 c-38 11 -72 10 -65 -1 8 -13 -10 -13
-33 0 -17 10 -119 50 -127 50 -2 0 -6 -4 -10 -10z m442 -96 c-3 -3 -12 -4 -19
-1 -8 3 -5 6 6 6 11 1 17 -2 13 -5z m300 -10 c-3 -3 -12 -4 -19 -1 -8 3 -5 6
6 6 11 1 17 -2 13 -5z m-152 -184 c-11 -5 -31 -8 -45 -8 -23 0 -22 1 5 8 42
11 65 11 40 0z m951 -66 c-3 -9 -6 -22 -6 -30 0 -9 -11 -14 -35 -14 -32 0 -35
2 -35 30 0 28 2 30 41 30 33 0 40 -3 35 -16z m4 -144 c0 -29 -2 -30 -42 -29
l-43 2 35 6 c46 8 48 36 3 35 -18 -1 -33 3 -33 7 0 5 18 9 40 9 38 0 40 -2 40
-30z m-291 -174 c1 -6 -3 -6 -9 0 -14 14 -42 155 -34 174 5 12 41 -130 43
-174z m258 168 c-3 -3 -12 -4 -19 -1 -8 3 -5 6 6 6 11 1 17 -2 13 -5z m46
-231 c-7 -2 -21 -2 -30 0 -10 3 -4 5 12 5 17 0 24 -2 18 -5z m12 -33 c15 -6 9
-9 -25 -9 -34 0 -40 3 -25 9 11 5 22 9 25 9 3 0 14 -4 25 -9z m8 -37 c-13 -2
-35 -2 -50 0 -16 2 -5 4 22 4 28 0 40 -2 28 -4z m27 -33 c0 -5 -21 -10 -47 -9
-36 0 -43 3 -28 9 28 12 75 12 75 0z m5 -31 c-6 -9 -75 -17 -75 -8 0 4 12 9
28 11 44 5 51 5 47 -3z m-5 -28 c-14 -4 -38 -11 -55 -14 l-30 -6 30 14 c17 8
41 14 55 14 l25 -1 -25 -7z"/>
<path d="M4385 3400 c-21 -21 -24 -30 -13 -30 21 0 70 39 63 51 -10 15 -20 11
-50 -21z"/>
<path d="M3692 3133 c26 -3 38 -10 41 -24 4 -15 4 -14 3 3 -1 20 -7 23 -41 24
l-40 1 37 -4z"/>
<path d="M3565 3120 c-14 -7 -8 -8 20 -3 22 3 42 7 44 9 9 8 -45 2 -64 -6z"/>
<path d="M2628 3063 c43 -6 41 -18 -5 -21 -52 -4 -84 -22 -105 -59 l-19 -31
54 4 54 5 -1 -60 c0 -34 -3 -61 -6 -61 -8 0 -51 30 -88 62 -27 23 -36 26 -51
16 -31 -19 -51 -63 -51 -112 0 -57 13 -59 67 -7 39 38 55 41 61 11 2 -8 8 -16
13 -18 5 -2 9 -8 9 -13 0 -6 -4 -8 -9 -5 -5 4 -16 3 -25 0 -15 -6 -15 -8 1
-21 17 -14 17 -14 -1 -8 -16 4 -14 0 7 -19 38 -35 34 -42 -6 -12 -19 15 -41
26 -49 26 -15 0 -33 -26 -30 -42 2 -10 -42 -11 -51 -2 -3 4 4 15 16 25 27 23
15 25 -18 3 -19 -13 -23 -22 -18 -44 6 -34 -29 -159 -59 -209 -12 -18 -36 -40
-55 -47 -38 -16 -42 -30 -13 -39 11 -3 20 -12 20 -20 0 -7 8 -23 18 -35 26
-32 90 -31 137 1 72 49 117 207 73 256 -17 19 -17 20 5 41 38 36 71 25 79 -26
3 -22 4 -22 52 13 27 19 58 35 69 35 11 0 37 18 59 40 22 22 41 40 42 40 0 0
0 -30 -2 -67 -2 -43 0 -64 6 -58 9 10 34 121 48 214 8 55 -5 204 -16 176 l-8
-20 -8 20 c-4 11 -13 24 -21 28 -7 4 -13 14 -13 21 0 21 -24 26 -113 24 -45 0
-67 -3 -49 -5z m-3 -43 c3 -5 2 -10 -4 -10 -5 0 -13 5 -16 10 -3 6 -2 10 4 10
5 0 13 -4 16 -10z m-70 -260 c4 -6 10 -8 15 -5 4 2 10 -6 12 -19 3 -15 1 -22
-6 -20 -16 7 -49 54 -37 54 5 0 13 -5 16 -10z"/>
<path d="M3092 2948 c-16 -16 -15 -33 4 -48 22 -19 54 12 38 37 -14 22 -27 26
-42 11z m31 -23 c1 -5 -6 -11 -15 -13 -11 -2 -18 3 -18 13 0 17 30 18 33 0z"/>
<path d="M3720 2900 c-8 -5 -10 -10 -5 -10 6 0 17 5 25 10 8 5 11 10 5 10 -5
0 -17 -5 -25 -10z"/>
<path d="M3635 2871 c-53 -24 -63 -38 -95 -129 -21 -60 -33 -80 -55 -91 -32
-16 -251 -35 -310 -27 -59 9 -22 -9 53 -24 70 -14 142 -9 211 16 65 24 87 48
111 118 27 83 44 104 104 132 28 13 44 24 36 24 -8 0 -33 -9 -55 -19z"/>
<path d="M3000 2849 c19 -11 43 -31 53 -42 l18 -22 -11 23 c-11 23 -65 62 -85
62 -5 0 6 -9 25 -21z"/>
<path d="M3230 2751 c0 -6 4 -13 10 -16 6 -3 7 1 4 9 -7 18 -14 21 -14 7z"/>
<path d="M3614 2742 c-19 -13 -23 -39 -8 -61 20 -28 40 -27 60 4 16 24 16 27
-1 45 -19 21 -33 24 -51 12z m45 -20 c12 -22 -3 -42 -31 -42 -12 0 -18 8 -18
23 0 40 31 52 49 19z"/>
<path d="M3006 2731 c-4 -6 -3 -11 3 -11 6 0 15 -15 21 -32 l10 -33 -5 35 c-6
39 -19 57 -29 41z"/>
<path d="M2944 2705 c-14 -22 -15 -30 -4 -53 8 -15 14 -31 14 -37 1 -16 52
-17 65 -1 8 10 9 16 1 21 -6 4 -9 1 -8 -7 2 -8 -9 -14 -27 -16 -16 -2 -27 -1
-23 3 4 4 1 17 -7 29 -20 28 -19 42 5 66 11 11 16 20 10 20 -5 0 -17 -11 -26
-25z"/>
<path d="M3308 2573 c-27 -2 -48 -7 -48 -11 0 -11 143 -2 155 9 9 9 -11 9
-107 2z"/>
<path d="M3298 2503 c-55 -8 -27 -18 42 -15 38 2 70 8 70 13 0 9 -59 10 -112
2z"/>
<path d="M3898 2383 c6 -2 18 -2 25 0 6 3 1 5 -13 5 -14 0 -19 -2 -12 -5z"/>
<path d="M3984 2364 c36 -11 46 -18 35 -25 -11 -7 -12 -12 -1 -29 6 -11 12
-27 12 -36 0 -15 -9 -16 -72 -10 -40 3 -201 9 -358 12 -307 7 -559 -10 -588
-40 -12 -12 -3 -15 57 -21 70 -7 71 -7 77 -40 3 -20 26 -56 56 -89 l50 -56
-45 0 c-31 0 -49 -6 -62 -20 -18 -20 -18 -21 20 -60 l38 -39 1 -163 c1 -155 2
-165 26 -207 24 -42 25 -43 28 -17 2 15 10 26 18 26 22 0 35 47 32 109 -3 47
-7 58 -25 66 -19 8 -23 18 -23 52 0 28 4 43 13 43 6 0 44 -32 82 -72 39 -39
85 -77 103 -85 61 -26 132 12 208 113 21 27 33 34 53 32 22 -3 26 -9 29 -38 2
-28 -1 -37 -20 -45 -48 -21 -43 -154 7 -177 15 -7 21 -16 18 -26 -11 -27 16
-3 33 29 20 39 29 214 16 294 l-11 60 32 28 32 27 -33 30 c-22 20 -43 30 -64
30 l-31 0 21 23 c12 13 22 30 22 38 0 9 3 19 8 23 4 4 7 11 7 14 0 4 7 28 14
55 15 53 14 52 131 62 112 9 115 11 118 52 3 48 10 56 41 49 26 -6 26 -6 3 7
-12 7 -20 16 -17 19 4 3 -4 6 -17 5 -13 -1 -45 2 -73 6 l-50 7 49 -16z m-477
-270 c-3 -3 -12 -4 -19 -1 -8 3 -5 6 6 6 11 1 17 -2 13 -5z m54 -204 c-25 -21
-85 -27 -110 -11 -10 6 -1 8 26 4 26 -3 50 0 69 10 39 22 44 20 15 -3z m229
-125 c0 -19 -4 -35 -10 -35 -11 0 -13 30 -4 54 10 25 14 19 14 -19z m-573 -32
c-3 -10 -5 -4 -5 12 0 17 2 24 5 18 2 -7 2 -21 0 -30z"/>
<path d="M3408 2353 c12 -2 32 -2 45 0 12 2 2 4 -23 4 -25 0 -35 -2 -22 -4z"/>
<path d="M3520 2349 c0 -5 5 -7 10 -4 6 3 10 8 10 11 0 2 -4 4 -10 4 -5 0 -10
-5 -10 -11z"/>
<path d="M2880 2335 c-14 -8 -20 -14 -15 -14 6 0 21 6 35 14 14 8 21 14 15 14
-5 0 -21 -6 -35 -14z"/>
<path d="M3150 2332 c1 -20 19 -34 38 -28 37 12 34 34 -4 34 -19 0 -34 -3 -34
-6z"/>
<path d="M3260 2328 c0 -4 16 -8 35 -8 19 0 35 2 35 4 0 2 -16 6 -35 8 -19 2
-35 0 -35 -4z"/>
<path d="M3060 2311 c0 -12 39 -25 47 -17 4 3 -1 6 -10 6 -9 0 -17 5 -17 10 0
6 -4 10 -10 10 -5 0 -10 -4 -10 -9z"/>
<path d="M2955 2230 c3 -5 11 -10 16 -10 6 0 7 5 4 10 -3 6 -11 10 -16 10 -6
0 -7 -4 -4 -10z"/>
<path d="M4633 2113 c9 -2 23 -2 30 0 6 3 -1 5 -18 5 -16 0 -22 -2 -12 -5z"/>
<path d="M4497 2080 c-99 -37 -150 -68 -143 -87 3 -8 2 -23 -4 -33 -5 -10 -12
-35 -14 -55 -3 -21 -11 -42 -18 -46 -7 -5 -8 -9 -2 -9 5 0 19 -7 30 -15 13
-11 6 -10 -21 3 -65 31 -115 -4 -115 -81 0 -50 38 -87 89 -87 31 0 45 8 90 54
l52 53 37 -13 c47 -17 72 -17 72 -1 0 6 -7 51 -16 99 -16 85 -15 88 4 113 19
24 20 28 6 62 -17 40 -13 47 36 61 19 6 26 10 15 11 -11 0 -55 -13 -98 -29z
m-37 -110 c-8 -5 -24 -10 -35 -10 -17 0 -17 2 -5 10 8 5 24 10 35 10 17 0 17
-2 5 -10z m-160 -165 c15 -18 6 -45 -13 -45 -8 0 -20 7 -27 15 -10 12 -10 18
0 30 16 19 24 19 40 0z"/>
<path d="M4726 2064 c-33 -32 -11 -97 53 -161 43 -43 100 -69 126 -59 8 3 15
17 15 32 0 26 -1 26 -25 10 -20 -13 -25 -14 -25 -2 0 7 -10 16 -21 19 -14 4
-20 11 -16 20 4 11 -2 14 -24 13 -17 -1 -36 5 -45 15 -22 24 -16 89 10 111 21
17 21 18 -6 18 -15 0 -34 -7 -42 -16z"/>
<path d="M4120 1793 c0 -43 5 -41 13 5 4 18 2 32 -3 32 -6 0 -10 -16 -10 -37z"/>
<path d="M4547 1607 c-20 -35 -37 -76 -37 -92 0 -32 -40 -75 -70 -75 -21 0
-50 -46 -50 -78 0 -31 34 -53 101 -64 80 -14 151 -13 179 2 13 7 44 13 69 15
50 2 105 30 98 50 -3 6 4 11 17 11 17 -1 25 10 41 61 11 33 28 70 38 81 15 17
16 23 6 40 -9 15 -27 21 -74 25 -33 3 -104 21 -157 40 -53 19 -99 32 -102 29
-3 -3 -6 -13 -6 -22 0 -10 -8 -24 -17 -31 -12 -10 -15 -11 -9 -1 13 21 25 72
17 72 -4 0 -24 -29 -44 -63z m122 -88 c31 -17 57 -33 59 -34 6 -5 -36 -81 -53
-95 -8 -7 -19 -10 -23 -6 -4 4 1 12 11 17 9 6 24 24 33 40 14 29 14 32 -3 44
-10 8 -35 22 -56 31 -39 18 -39 18 -58 -7 -28 -36 -23 -56 23 -89 22 -16 34
-30 26 -30 -15 0 -66 35 -80 54 -5 8 13 73 27 97 11 16 37 10 94 -22z m149
-85 l30 -6 -30 -50 c-31 -50 -31 -50 -72 -44 -22 4 -42 9 -44 11 -2 2 8 24 23
49 28 47 37 51 93 40z m-338 -34 c0 -5 -5 -10 -11 -10 -5 0 -7 5 -4 10 3 6 8
10 11 10 2 0 4 -4 4 -10z"/>
<path d="M4747 1414 c-12 -12 4 -24 32 -24 16 0 34 7 41 15 11 13 7 15 -27 15
-22 0 -43 -3 -46 -6z"/>
<path d="M3737 1408 c-3 -31 -1 -55 5 -57 26 -9 82 -69 102 -110 13 -25 40
-111 59 -190 20 -78 42 -150 49 -158 10 -12 28 -14 87 -10 40 3 78 10 83 15 7
7 1 49 -16 120 -14 60 -32 154 -40 207 -9 67 -19 102 -30 110 -9 7 -16 17 -16
24 0 7 -27 11 -80 11 -90 0 -123 12 -163 60 -14 16 -28 30 -30 30 -2 0 -7 -24
-10 -52z"/>
<path d="M3245 1420 c-31 -36 -78 -50 -162 -50 -54 0 -73 -3 -63 -10 12 -8 11
-10 -6 -10 -12 0 -27 -6 -33 -13 -11 -14 -91 -372 -91 -407 0 -16 9 -18 88
-15 70 2 88 6 90 19 3 13 -8 16 -67 16 -58 0 -71 3 -71 16 0 13 13 15 77 13
74 -2 78 -1 84 22 14 48 13 49 -67 49 -56 0 -75 3 -72 13 3 8 31 13 80 15 54
2 78 7 82 17 3 9 0 12 -10 8 -8 -3 -14 1 -14 10 0 8 10 18 23 22 16 6 4 10
-45 14 -93 8 -96 21 -5 21 45 0 77 4 77 10 0 6 -26 10 -57 11 -63 0 -109 13
-83 22 8 3 46 8 84 10 48 4 72 10 78 20 21 38 65 81 96 94 24 10 31 17 24 26
-6 7 -12 27 -14 46 l-3 33 -20 -22z m-192 -427 c-18 -2 -48 -2 -65 0 -18 2 -4
4 32 4 36 0 50 -2 33 -4z"/>
<path d="M3342 929 c10 -5 24 -19 33 -32 8 -12 15 -17 15 -11 0 15 -39 54 -53
54 -7 0 -4 -5 5 -11z"/>
<path d="M3619 913 c-13 -16 -12 -17 4 -4 9 7 17 15 17 17 0 8 -8 3 -21 -13z"/>
<path d="M2873 820 c-29 -12 -30 -24 -1 -17 27 7 148 -24 220 -57 29 -13 90
-52 136 -86 l83 -61 -7 -94 -7 -94 27 -12 c24 -11 29 -10 55 15 40 38 71 114
78 190 5 56 2 71 -23 125 -23 47 -34 61 -51 61 -27 0 -51 -41 -60 -105 -3 -25
-8 -45 -12 -45 -3 0 -19 9 -36 20 -49 32 -57 36 -135 75 -41 21 -82 45 -90 55
-8 10 -25 23 -37 29 -26 13 -109 14 -140 1z m502 -159 c-7 -43 -25 -66 -25
-33 0 25 21 85 27 78 3 -2 2 -23 -2 -45z"/>
<path d="M4002 805 c-19 -8 -46 -25 -62 -38 -15 -13 -59 -37 -96 -53 -38 -15
-91 -41 -117 -56 -52 -30 -52 -30 -60 40 -6 52 -31 92 -56 92 -33 0 -33 -29 0
-70 25 -31 31 -49 35 -101 l4 -64 -15 62 c-15 65 -37 117 -55 128 -6 4 -20
-15 -32 -42 -19 -44 -20 -54 -10 -116 14 -79 32 -119 75 -164 34 -36 45 -39
71 -20 15 11 16 21 6 101 -12 98 -9 107 44 131 17 8 58 31 91 50 77 45 191 81
285 91 l75 7 -40 18 c-48 22 -98 23 -143 4z"/>
<path d="M3079 693 c-13 -16 -12 -17 4 -4 16 13 21 21 13 21 -2 0 -10 -8 -17
-17z"/>
<path d="M3940 630 c6 -11 13 -20 16 -20 2 0 0 9 -6 20 -6 11 -13 20 -16 20
-2 0 0 -9 6 -20z"/>
<path d="M2625 538 c2 -19 7 -23 36 -22 19 1 56 6 83 11 66 15 166 1 206 -27
32 -23 35 -23 138 -4 28 6 31 4 25 -11 -5 -14 -3 -16 8 -11 8 4 3 -2 -11 -13
-30 -25 -49 -26 -93 -5 -44 21 -102 6 -154 -41 -21 -19 -47 -37 -58 -39 -11
-3 -40 -9 -65 -15 l-45 -10 50 3 c28 2 59 0 70 -4 12 -5 -26 -8 -95 -8 -63 0
-104 3 -90 7 l25 7 -25 7 c-14 4 -42 7 -62 7 -50 0 -89 16 -95 39 -3 11 -16
21 -29 24 -20 3 -24 0 -24 -18 0 -32 17 -43 80 -51 68 -8 98 -22 55 -25 -113
-8 266 -15 410 -8 220 11 268 17 292 35 16 13 16 13 1 8 -16 -5 -18 1 -18 56
0 100 0 100 -148 100 -70 0 -185 7 -257 15 -71 8 -148 15 -171 15 -36 0 -40
-3 -39 -22z m432 -164 c-3 -3 -12 -4 -19 -1 -8 3 -5 6 6 6 11 1 17 -2 13 -5z
m-127 -24 c0 -5 -19 -10 -42 -9 -33 0 -38 2 -23 9 28 12 65 12 65 0z"/>
<path d="M4260 538 c-52 -5 -138 -12 -190 -17 -82 -7 -88 -9 -40 -11 30 -2 96
-2 146 0 77 2 95 -1 125 -19 44 -27 45 -27 53 9 4 24 11 30 32 30 15 0 25 2
23 4 -12 10 -64 12 -149 4z"/>
<path d="M3770 485 c-6 -16 -10 -53 -9 -82 2 -45 6 -54 23 -58 80 -15 264 -25
484 -25 207 0 262 3 278 14 30 22 14 26 -51 11 -32 -8 -61 -12 -64 -9 -3 3 5
7 17 11 30 8 28 18 -12 42 -45 28 -87 27 -121 -5 -26 -24 -26 -26 -9 -39 17
-13 2 -14 -121 -14 -93 1 -133 4 -120 10 15 7 11 8 -17 5 -21 -3 -40 0 -43 5
-4 5 22 9 62 10 l68 1 -45 20 c-51 24 -152 103 -143 112 4 3 -12 6 -34 6 -22
0 -61 3 -86 6 -44 6 -47 5 -57 -21z m210 -129 c0 -3 -4 -8 -10 -11 -5 -3 -10
-1 -10 4 0 6 5 11 10 11 6 0 10 -2 10 -4z"/>
<path d="M2458 343 c12 -2 32 -2 45 0 12 2 2 4 -23 4 -25 0 -35 -2 -22 -4z"/>
</g>
</svg>
